<?xml version="1.0" encoding="UTF-8" standalone="no"?>
<svg
   xmlns:dc="http://purl.org/dc/elements/1.1/"
   xmlns:cc="http://creativecommons.org/ns#"
   xmlns:rdf="http://www.w3.org/1999/02/22-rdf-syntax-ns#"
   xmlns:svg="http://www.w3.org/2000/svg"
   xmlns="http://www.w3.org/2000/svg"
   xmlns:sodipodi="http://sodipodi.sourceforge.net/DTD/sodipodi-0.dtd"
   xmlns:inkscape="http://www.inkscape.org/namespaces/inkscape"
   version="1.1"
   id="Layer_1"
   x="0px"
   y="0px"
   viewBox="0 0 330 330"
   style="enable-background:new 0 0 330 330;"
   xml:space="preserve"
   sodipodi:docname="upload.svg"
   inkscape:version="1.0.1 (3bc2e813f5, 2020-09-07)"><metadata
   id="metadata911"><rdf:RDF><cc:Work
       rdf:about=""><dc:format>image/svg+xml</dc:format><dc:type
         rdf:resource="http://purl.org/dc/dcmitype/StillImage" /></cc:Work></rdf:RDF></metadata><defs
   id="defs909" /><sodipodi:namedview
   pagecolor="#ffffff"
   bordercolor="#666666"
   borderopacity="1"
   objecttolerance="10"
   gridtolerance="10"
   guidetolerance="10"
   inkscape:pageopacity="0"
   inkscape:pageshadow="2"
   inkscape:window-width="1920"
   inkscape:window-height="1017"
   id="namedview907"
   showgrid="false"
   inkscape:zoom="2.3212121"
   inkscape:cx="165"
   inkscape:cy="165"
   inkscape:window-x="-8"
   inkscape:window-y="165"
   inkscape:window-maximized="1"
   inkscape:current-layer="Layer_1" />
<g
   id="XMLID_26_"
   style="fill:#707070;fill-opacity:1">
	<path
   id="XMLID_27_"
   d="m 154.389,265.602 c 0.351,0.35 0.719,0.683 1.103,0.997 0.169,0.138 0.347,0.258 0.52,0.388 0.218,0.164 0.432,0.333 0.659,0.484 0.212,0.142 0.432,0.265 0.649,0.395 0.202,0.121 0.4,0.248 0.608,0.359 0.224,0.12 0.453,0.221 0.681,0.328 0.215,0.102 0.427,0.21 0.648,0.301 0.223,0.092 0.45,0.167 0.676,0.247 0.235,0.085 0.468,0.175 0.709,0.248 0.226,0.068 0.456,0.119 0.685,0.176 0.246,0.062 0.489,0.131 0.739,0.181 0.263,0.052 0.528,0.083 0.794,0.121 0.219,0.031 0.435,0.073 0.658,0.095 0.492,0.048 0.986,0.075 1.48,0.075 0.494,0 0.988,-0.026 1.48,-0.075 0.225,-0.022 0.444,-0.064 0.667,-0.096 0.262,-0.037 0.524,-0.068 0.784,-0.12 0.255,-0.05 0.503,-0.121 0.754,-0.184 0.223,-0.057 0.448,-0.105 0.669,-0.172 0.246,-0.075 0.483,-0.167 0.724,-0.253 0.221,-0.08 0.444,-0.152 0.662,-0.242 0.225,-0.093 0.44,-0.202 0.659,-0.306 0.225,-0.106 0.452,-0.206 0.672,-0.324 0.21,-0.112 0.408,-0.239 0.611,-0.361 0.217,-0.13 0.437,-0.252 0.648,-0.394 0.222,-0.148 0.431,-0.314 0.643,-0.473 0.179,-0.134 0.362,-0.258 0.536,-0.4 0.365,-0.3 0.714,-0.617 1.049,-0.949 0.016,-0.016 0.033,-0.028 0.049,-0.044 l 70.002,-69.998 c 5.858,-5.858 5.858,-15.355 0,-21.213 -5.857,-5.858 -15.355,-5.857 -21.213,-0.001 l -44.396,44.393 V 15 c 0,-8.284 -6.716,-15 -15,-15 -8.284,0 -15,6.716 -15,15 v 203.785 l -44.392,-44.391 c -5.858,-5.858 -15.356,-5.858 -21.213,0 -5.858,5.858 -5.858,15.355 0,21.213 z"
   style="fill:#707070;fill-opacity:1" />
	<path
   id="XMLID_28_"
   d="M 315,300 H 15 c -8.284,0 -15,6.716 -15,15 0,8.284 6.716,15 15,15 h 300 c 8.284,0 15,-6.716 15,-15 0,-8.284 -6.716,-15 -15,-15 z"
   style="fill:#707070;fill-opacity:1" />
</g>
<g
   id="g876">
</g>
<g
   id="g878">
</g>
<g
   id="g880">
</g>
<g
   id="g882">
</g>
<g
   id="g884">
</g>
<g
   id="g886">
</g>
<g
   id="g888">
</g>
<g
   id="g890">
</g>
<g
   id="g892">
</g>
<g
   id="g894">
</g>
<g
   id="g896">
</g>
<g
   id="g898">
</g>
<g
   id="g900">
</g>
<g
   id="g902">
</g>
<g
   id="g904">
</g>
</svg>
